<mxfile host="drawio-plugin" modified="2021-03-24T14:07:16.213Z" agent="5.0 (Windows NT 6.2; Win64; x64) AppleWebKit/537.36 (KHTML, like Gecko) Chrome/84.0.4147.105 Safari/537.36" etag="hY5cpjYxcf8J-YxmFLd0" version="13.7.9" type="embed"><diagram id="mk4_29LME3fyjlaXiGMG" name="Page-1"><mxGraphModel dx="1212" dy="1912" grid="1" gridSize="10" guides="1" tooltips="1" connect="1" arrows="1" fold="1" page="1" pageScale="1" pageWidth="827" pageHeight="1169" background="#DAD2D8" math="0" shadow="0"><root><mxCell id="0"/><mxCell id="1" parent="0"/><mxCell id="iJNk47OYg-jyD1bxVvRo-1" value="shop" style="swimlane;fontStyle=0;childLayout=stackLayout;horizontal=1;startSize=26;fillColor=none;horizontalStack=0;resizeParent=1;resizeParentMax=0;resizeLast=0;collapsible=1;marginBottom=0;strokeColor=#0F8B8D;fontColor=#143642;" parent="1" vertex="1"><mxGeometry x="510" y="210" width="150" height="230" as="geometry"><mxRectangle x="110" y="240" width="60" height="26" as="alternateBounds"/></mxGeometry></mxCell><mxCell id="iJNk47OYg-jyD1bxVvRo-2" value="id : int PK" style="text;strokeColor=none;fillColor=none;align=left;verticalAlign=top;spacingLeft=4;spacingRight=4;overflow=hidden;rotatable=0;points=[[0,0.5],[1,0.5]];portConstraint=eastwest;fontColor=#143642;" parent="iJNk47OYg-jyD1bxVvRo-1" vertex="1"><mxGeometry y="26" width="150" height="26" as="geometry"/></mxCell><mxCell id="iJNk47OYg-jyD1bxVvRo-3" value="name : text" style="text;strokeColor=none;fillColor=none;align=left;verticalAlign=top;spacingLeft=4;spacingRight=4;overflow=hidden;rotatable=0;points=[[0,0.5],[1,0.5]];portConstraint=eastwest;fontColor=#143642;" parent="iJNk47OYg-jyD1bxVvRo-1" vertex="1"><mxGeometry y="52" width="150" height="26" as="geometry"/></mxCell><mxCell id="iJNk47OYg-jyD1bxVvRo-7" value="description : text" style="text;strokeColor=none;fillColor=none;align=left;verticalAlign=top;spacingLeft=4;spacingRight=4;overflow=hidden;rotatable=0;points=[[0,0.5],[1,0.5]];portConstraint=eastwest;fontColor=#143642;" parent="iJNk47OYg-jyD1bxVvRo-1" vertex="1"><mxGeometry y="78" width="150" height="26" as="geometry"/></mxCell><mxCell id="iJNk47OYg-jyD1bxVvRo-9" value="phone : text" style="text;strokeColor=none;fillColor=none;align=left;verticalAlign=top;spacingLeft=4;spacingRight=4;overflow=hidden;rotatable=0;points=[[0,0.5],[1,0.5]];portConstraint=eastwest;fontColor=#143642;" parent="iJNk47OYg-jyD1bxVvRo-1" vertex="1"><mxGeometry y="104" width="150" height="26" as="geometry"/></mxCell><mxCell id="iJNk47OYg-jyD1bxVvRo-10" value="img : (text path to image&#10;or byte[] base64)" style="text;strokeColor=none;fillColor=none;align=left;verticalAlign=top;spacingLeft=4;spacingRight=4;overflow=hidden;rotatable=0;points=[[0,0.5],[1,0.5]];portConstraint=eastwest;fontColor=#143642;" parent="iJNk47OYg-jyD1bxVvRo-1" vertex="1"><mxGeometry y="130" width="150" height="44" as="geometry"/></mxCell><mxCell id="iJNk47OYg-jyD1bxVvRo-14" value="date_updated : timestamp" style="text;strokeColor=none;fillColor=none;align=left;verticalAlign=top;spacingLeft=4;spacingRight=4;overflow=hidden;rotatable=0;points=[[0,0.5],[1,0.5]];portConstraint=eastwest;fontColor=#143642;" parent="iJNk47OYg-jyD1bxVvRo-1" vertex="1"><mxGeometry y="174" width="150" height="26" as="geometry"/></mxCell><mxCell id="iJNk47OYg-jyD1bxVvRo-4" value="middle_rate : double" style="text;strokeColor=none;fillColor=none;align=left;verticalAlign=top;spacingLeft=4;spacingRight=4;overflow=hidden;rotatable=0;points=[[0,0.5],[1,0.5]];portConstraint=eastwest;fontColor=#143642;" parent="iJNk47OYg-jyD1bxVvRo-1" vertex="1"><mxGeometry y="200" width="150" height="30" as="geometry"/></mxCell><mxCell id="iJNk47OYg-jyD1bxVvRo-19" value="items" style="swimlane;fontStyle=0;childLayout=stackLayout;horizontal=1;startSize=26;fillColor=none;horizontalStack=0;resizeParent=1;resizeParentMax=0;resizeLast=0;collapsible=1;marginBottom=0;strokeColor=#0F8B8D;fontColor=#143642;" parent="1" vertex="1"><mxGeometry x="720" y="210" width="150" height="182" as="geometry"><mxRectangle x="280" y="240" width="60" height="26" as="alternateBounds"/></mxGeometry></mxCell><mxCell id="iJNk47OYg-jyD1bxVvRo-20" value="id : int PK" style="text;strokeColor=none;fillColor=none;align=left;verticalAlign=top;spacingLeft=4;spacingRight=4;overflow=hidden;rotatable=0;points=[[0,0.5],[1,0.5]];portConstraint=eastwest;fontColor=#143642;" parent="iJNk47OYg-jyD1bxVvRo-19" vertex="1"><mxGeometry y="26" width="150" height="26" as="geometry"/></mxCell><mxCell id="iJNk47OYg-jyD1bxVvRo-26" value="shop_id : int FK" style="text;strokeColor=none;fillColor=none;align=left;verticalAlign=top;spacingLeft=4;spacingRight=4;overflow=hidden;rotatable=0;points=[[0,0.5],[1,0.5]];portConstraint=eastwest;fontColor=#143642;" parent="iJNk47OYg-jyD1bxVvRo-19" vertex="1"><mxGeometry y="52" width="150" height="26" as="geometry"/></mxCell><mxCell id="iJNk47OYg-jyD1bxVvRo-21" value="name : text" style="text;strokeColor=none;fillColor=none;align=left;verticalAlign=top;spacingLeft=4;spacingRight=4;overflow=hidden;rotatable=0;points=[[0,0.5],[1,0.5]];portConstraint=eastwest;fontColor=#143642;" parent="iJNk47OYg-jyD1bxVvRo-19" vertex="1"><mxGeometry y="78" width="150" height="26" as="geometry"/></mxCell><mxCell id="iJNk47OYg-jyD1bxVvRo-22" value="volume : text" style="text;strokeColor=none;fillColor=none;align=left;verticalAlign=top;spacingLeft=4;spacingRight=4;overflow=hidden;rotatable=0;points=[[0,0.5],[1,0.5]];portConstraint=eastwest;fontColor=#143642;" parent="iJNk47OYg-jyD1bxVvRo-19" vertex="1"><mxGeometry y="104" width="150" height="26" as="geometry"/></mxCell><mxCell id="iJNk47OYg-jyD1bxVvRo-23" value="cost : integer" style="text;strokeColor=none;fillColor=none;align=left;verticalAlign=top;spacingLeft=4;spacingRight=4;overflow=hidden;rotatable=0;points=[[0,0.5],[1,0.5]];portConstraint=eastwest;fontColor=#143642;" parent="iJNk47OYg-jyD1bxVvRo-19" vertex="1"><mxGeometry y="130" width="150" height="26" as="geometry"/></mxCell><mxCell id="28" value="date_updated : timestamp" style="text;strokeColor=none;fillColor=none;align=left;verticalAlign=top;spacingLeft=4;spacingRight=4;overflow=hidden;rotatable=0;points=[[0,0.5],[1,0.5]];portConstraint=eastwest;fontColor=#143642;" parent="iJNk47OYg-jyD1bxVvRo-19" vertex="1"><mxGeometry y="156" width="150" height="26" as="geometry"/></mxCell><mxCell id="iJNk47OYg-jyD1bxVvRo-75" value="" style="edgeStyle=entityRelationEdgeStyle;fontSize=12;html=1;endArrow=ERoneToMany;exitX=1;exitY=0.5;exitDx=0;exitDy=0;strokeColor=#A8201A;fontColor=#143642;labelBackgroundColor=#DAD2D8;" parent="1" source="iJNk47OYg-jyD1bxVvRo-60" target="29" edge="1"><mxGeometry width="100" height="100" relative="1" as="geometry"><mxPoint x="360" y="270" as="sourcePoint"/><mxPoint x="460" y="170" as="targetPoint"/></mxGeometry></mxCell><mxCell id="iJNk47OYg-jyD1bxVvRo-76" value="" style="edgeStyle=entityRelationEdgeStyle;fontSize=12;html=1;endArrow=ERoneToMany;strokeColor=#A8201A;fontColor=#143642;labelBackgroundColor=#DAD2D8;" parent="1" source="iJNk47OYg-jyD1bxVvRo-2" target="iJNk47OYg-jyD1bxVvRo-53" edge="1"><mxGeometry width="100" height="100" relative="1" as="geometry"><mxPoint x="360" y="330" as="sourcePoint"/><mxPoint x="473.3600000000001" y="98.99400000000003" as="targetPoint"/></mxGeometry></mxCell><mxCell id="iJNk47OYg-jyD1bxVvRo-77" value="" style="edgeStyle=entityRelationEdgeStyle;fontSize=12;html=1;endArrow=ERoneToMany;strokeColor=#A8201A;fontColor=#143642;labelBackgroundColor=#DAD2D8;" parent="1" source="iJNk47OYg-jyD1bxVvRo-60" target="iJNk47OYg-jyD1bxVvRo-50" edge="1"><mxGeometry width="100" height="100" relative="1" as="geometry"><mxPoint x="540" y="330" as="sourcePoint"/><mxPoint x="640" y="230" as="targetPoint"/></mxGeometry></mxCell><mxCell id="DFCJe154SnKGi0cL0aBG-6" value="" style="edgeStyle=entityRelationEdgeStyle;fontSize=12;html=1;endArrow=ERmandOne;startArrow=ERmandOne;strokeColor=#A8201A;fontColor=#143642;labelBackgroundColor=#DAD2D8;" parent="1" source="DFCJe154SnKGi0cL0aBG-2" target="iJNk47OYg-jyD1bxVvRo-7" edge="1"><mxGeometry width="100" height="100" relative="1" as="geometry"><mxPoint x="430" y="400" as="sourcePoint"/><mxPoint x="530" y="300" as="targetPoint"/></mxGeometry></mxCell><mxCell id="MwKqQEceN8kSWKsUcLzE-1" value="" style="edgeStyle=entityRelationEdgeStyle;fontSize=12;html=1;endArrow=ERoneToMany;strokeColor=#A8201A;fontColor=#143642;labelBackgroundColor=#DAD2D8;" parent="1" source="iJNk47OYg-jyD1bxVvRo-2" target="iJNk47OYg-jyD1bxVvRo-20" edge="1"><mxGeometry width="100" height="100" relative="1" as="geometry"><mxPoint x="520" y="259" as="sourcePoint"/><mxPoint x="460" y="115" as="targetPoint"/></mxGeometry></mxCell><mxCell id="16" value="" style="edgeStyle=entityRelationEdgeStyle;fontSize=12;html=1;endArrow=ERoneToMany;strokeColor=#A8201A;fontColor=#143642;labelBackgroundColor=#DAD2D8;" parent="1" source="iJNk47OYg-jyD1bxVvRo-60" target="3" edge="1"><mxGeometry width="100" height="100" relative="1" as="geometry"><mxPoint x="870" y="89" as="sourcePoint"/><mxPoint x="940" y="-31" as="targetPoint"/></mxGeometry></mxCell><mxCell id="18" value="оценка" style="text;strokeColor=none;fillColor=none;align=left;verticalAlign=top;spacingLeft=4;spacingRight=4;overflow=hidden;rotatable=0;points=[[0,0.5],[1,0.5]];portConstraint=eastwest;fontColor=#143642;" parent="1" vertex="1"><mxGeometry x="250" y="80" width="50" height="26" as="geometry"/></mxCell><mxCell id="19" value="оценка" style="text;strokeColor=none;fillColor=none;align=left;verticalAlign=top;spacingLeft=4;spacingRight=4;overflow=hidden;rotatable=0;points=[[0,0.5],[1,0.5]];portConstraint=eastwest;fontColor=#143642;" parent="1" vertex="1"><mxGeometry x="240" y="222" width="50" height="26" as="geometry"/></mxCell><mxCell id="20" value="средняя&#10;оценка&#10;заведения" style="text;strokeColor=none;fillColor=none;align=left;verticalAlign=top;spacingLeft=4;spacingRight=4;overflow=hidden;rotatable=0;points=[[0,0.5],[1,0.5]];portConstraint=eastwest;fontColor=#143642;" parent="1" vertex="1"><mxGeometry x="440" y="394" width="70" height="46" as="geometry"/></mxCell><mxCell id="21" value="объем" style="text;strokeColor=none;fillColor=none;align=left;verticalAlign=top;spacingLeft=4;spacingRight=4;overflow=hidden;rotatable=0;points=[[0,0.5],[1,0.5]];portConstraint=eastwest;fontColor=#143642;" parent="1" vertex="1"><mxGeometry x="870" y="290" width="70" height="26" as="geometry"/></mxCell><mxCell id="22" value="цена" style="text;strokeColor=none;fillColor=none;align=left;verticalAlign=top;spacingLeft=4;spacingRight=4;overflow=hidden;rotatable=0;points=[[0,0.5],[1,0.5]];portConstraint=eastwest;fontColor=#143642;" parent="1" vertex="1"><mxGeometry x="870" y="316" width="70" height="26" as="geometry"/></mxCell><mxCell id="23" value="корзина" style="text;strokeColor=none;fillColor=none;align=left;verticalAlign=top;spacingLeft=4;spacingRight=4;overflow=hidden;rotatable=0;points=[[0,0.5],[1,0.5]];portConstraint=eastwest;fontColor=#143642;" parent="1" vertex="1"><mxGeometry x="1080" y="-70" width="70" height="26" as="geometry"/></mxCell><mxCell id="24" value="дата создания" style="text;strokeColor=none;fillColor=none;align=left;verticalAlign=top;spacingLeft=4;spacingRight=4;overflow=hidden;rotatable=0;points=[[0,0.5],[1,0.5]];portConstraint=eastwest;fontColor=#143642;" parent="1" vertex="1"><mxGeometry x="840" y="34" width="90" height="26" as="geometry"/></mxCell><mxCell id="25" value="дата время, к которому нужно подать" style="text;strokeColor=none;fillColor=none;align=left;verticalAlign=top;spacingLeft=4;spacingRight=4;overflow=hidden;rotatable=0;points=[[0,0.5],[1,0.5]];portConstraint=eastwest;fontColor=#143642;" parent="1" vertex="1"><mxGeometry x="710" y="60" width="220" height="26" as="geometry"/></mxCell><mxCell id="iJNk47OYg-jyD1bxVvRo-49" value="review" style="swimlane;fontStyle=0;childLayout=stackLayout;horizontal=1;startSize=26;fillColor=none;horizontalStack=0;resizeParent=1;resizeParentMax=0;resizeLast=0;collapsible=1;marginBottom=0;strokeColor=#0F8B8D;fontColor=#143642;" parent="1" vertex="1"><mxGeometry x="300" y="2" width="150" height="182" as="geometry"><mxRectangle x="344" y="22" width="60" height="26" as="alternateBounds"/></mxGeometry></mxCell><mxCell id="iJNk47OYg-jyD1bxVvRo-50" value="id : int PK" style="text;strokeColor=none;fillColor=none;align=left;verticalAlign=top;spacingLeft=4;spacingRight=4;overflow=hidden;rotatable=0;points=[[0,0.5],[1,0.5]];portConstraint=eastwest;fontColor=#143642;" parent="iJNk47OYg-jyD1bxVvRo-49" vertex="1"><mxGeometry y="26" width="150" height="26" as="geometry"/></mxCell><mxCell id="40" value="shop_id : int FK" style="text;strokeColor=none;fillColor=none;align=left;verticalAlign=top;spacingLeft=4;spacingRight=4;overflow=hidden;rotatable=0;points=[[0,0.5],[1,0.5]];portConstraint=eastwest;fontColor=#143642;" parent="iJNk47OYg-jyD1bxVvRo-49" vertex="1"><mxGeometry y="52" width="150" height="26" as="geometry"/></mxCell><mxCell id="41" value="user_id : int FK" style="text;strokeColor=none;fillColor=none;align=left;verticalAlign=top;spacingLeft=4;spacingRight=4;overflow=hidden;rotatable=0;points=[[0,0.5],[1,0.5]];portConstraint=eastwest;fontColor=#143642;" parent="iJNk47OYg-jyD1bxVvRo-49" vertex="1"><mxGeometry y="78" width="150" height="26" as="geometry"/></mxCell><mxCell id="iJNk47OYg-jyD1bxVvRo-53" value="description : text" style="text;strokeColor=none;fillColor=none;align=left;verticalAlign=top;spacingLeft=4;spacingRight=4;overflow=hidden;rotatable=0;points=[[0,0.5],[1,0.5]];portConstraint=eastwest;fontColor=#143642;" parent="iJNk47OYg-jyD1bxVvRo-49" vertex="1"><mxGeometry y="104" width="150" height="26" as="geometry"/></mxCell><mxCell id="iJNk47OYg-jyD1bxVvRo-54" value="rate : integer" style="text;strokeColor=none;fillColor=none;align=left;verticalAlign=top;spacingLeft=4;spacingRight=4;overflow=hidden;rotatable=0;points=[[0,0.5],[1,0.5]];portConstraint=eastwest;fontColor=#143642;" parent="iJNk47OYg-jyD1bxVvRo-49" vertex="1"><mxGeometry y="130" width="150" height="26" as="geometry"/></mxCell><mxCell id="42" value="date_updated : timestamp" style="text;strokeColor=none;fillColor=none;align=left;verticalAlign=top;spacingLeft=4;spacingRight=4;overflow=hidden;rotatable=0;points=[[0,0.5],[1,0.5]];portConstraint=eastwest;fontColor=#143642;" parent="iJNk47OYg-jyD1bxVvRo-49" vertex="1"><mxGeometry y="156" width="150" height="26" as="geometry"/></mxCell><mxCell id="47" value="также у каждой сущности в базе &#10;есть boolean isDeleted&#10;то есть по факту я не удаляю записи. &#10;Мб где нибудь понадобится" style="text;strokeColor=#0F8B8D;fillColor=#FAE5C7;align=left;verticalAlign=top;spacingLeft=4;spacingRight=4;overflow=hidden;rotatable=0;points=[[0,0.5],[1,0.5]];portConstraint=eastwest;fontSize=18;strokeWidth=5;fontColor=#143642;" parent="1" vertex="1"><mxGeometry x="140" y="-144" width="330" height="100" as="geometry"/></mxCell><mxCell id="48" value="items_cart" style="swimlane;fontStyle=0;childLayout=stackLayout;horizontal=1;startSize=26;fillColor=none;horizontalStack=0;resizeParent=1;resizeParentMax=0;resizeLast=0;collapsible=1;marginBottom=0;strokeColor=#0F8B8D;fontColor=#143642;" parent="1" vertex="1"><mxGeometry x="940" y="190" width="160" height="78" as="geometry"><mxRectangle x="280" y="240" width="60" height="26" as="alternateBounds"/></mxGeometry></mxCell><mxCell id="49" value="item_id : int FK" style="text;strokeColor=none;fillColor=none;align=left;verticalAlign=top;spacingLeft=4;spacingRight=4;overflow=hidden;rotatable=0;points=[[0,0.5],[1,0.5]];portConstraint=eastwest;fontColor=#143642;" parent="48" vertex="1"><mxGeometry y="26" width="160" height="26" as="geometry"/></mxCell><mxCell id="50" value="shopping_cart_id : int FK" style="text;strokeColor=none;fillColor=none;align=left;verticalAlign=top;spacingLeft=4;spacingRight=4;overflow=hidden;rotatable=0;points=[[0,0.5],[1,0.5]];portConstraint=eastwest;fontColor=#143642;" parent="48" vertex="1"><mxGeometry y="52" width="160" height="26" as="geometry"/></mxCell><mxCell id="55" value="" style="edgeStyle=entityRelationEdgeStyle;fontSize=12;html=1;endArrow=ERoneToMany;strokeColor=#A8201A;fontColor=#143642;labelBackgroundColor=#DAD2D8;" parent="1" source="iJNk47OYg-jyD1bxVvRo-20" target="49" edge="1"><mxGeometry width="100" height="100" relative="1" as="geometry"><mxPoint x="670" y="259" as="sourcePoint"/><mxPoint x="730" y="259" as="targetPoint"/></mxGeometry></mxCell><mxCell id="iJNk47OYg-jyD1bxVvRo-59" value="user" style="swimlane;fontStyle=0;childLayout=stackLayout;horizontal=1;startSize=26;fillColor=none;horizontalStack=0;resizeParent=1;resizeParentMax=0;resizeLast=0;collapsible=1;marginBottom=0;strokeColor=#0F8B8D;fontColor=#143642;" parent="1" vertex="1"><mxGeometry x="540" y="-184" width="150" height="104" as="geometry"><mxRectangle x="580" y="70" width="60" height="26" as="alternateBounds"/></mxGeometry></mxCell><mxCell id="iJNk47OYg-jyD1bxVvRo-60" value="id : int PK" style="text;strokeColor=none;fillColor=none;align=left;verticalAlign=top;spacingLeft=4;spacingRight=4;overflow=hidden;rotatable=0;points=[[0,0.5],[1,0.5]];portConstraint=eastwest;fontColor=#143642;" parent="iJNk47OYg-jyD1bxVvRo-59" vertex="1"><mxGeometry y="26" width="150" height="26" as="geometry"/></mxCell><mxCell id="iJNk47OYg-jyD1bxVvRo-61" value="name : text" style="text;strokeColor=none;fillColor=none;align=left;verticalAlign=top;spacingLeft=4;spacingRight=4;overflow=hidden;rotatable=0;points=[[0,0.5],[1,0.5]];portConstraint=eastwest;fontColor=#143642;" parent="iJNk47OYg-jyD1bxVvRo-59" vertex="1"><mxGeometry y="52" width="150" height="26" as="geometry"/></mxCell><mxCell id="46" value="date_updated : timestamp" style="text;strokeColor=none;fillColor=none;align=left;verticalAlign=top;spacingLeft=4;spacingRight=4;overflow=hidden;rotatable=0;points=[[0,0.5],[1,0.5]];portConstraint=eastwest;fontColor=#143642;" parent="iJNk47OYg-jyD1bxVvRo-59" vertex="1"><mxGeometry y="78" width="150" height="26" as="geometry"/></mxCell><mxCell id="iJNk47OYg-jyD1bxVvRo-31" value="order_history" style="swimlane;fontStyle=0;childLayout=stackLayout;horizontal=1;startSize=26;fillColor=none;horizontalStack=0;resizeParent=1;resizeParentMax=0;resizeLast=0;collapsible=1;marginBottom=0;strokeColor=#0F8B8D;fontColor=#143642;" parent="1" vertex="1"><mxGeometry x="830" y="-220" width="150" height="104" as="geometry"><mxRectangle x="640" y="230" width="60" height="26" as="alternateBounds"/></mxGeometry></mxCell><mxCell id="29" value="id : int PK" style="text;strokeColor=none;fillColor=none;align=left;verticalAlign=top;spacingLeft=4;spacingRight=4;overflow=hidden;rotatable=0;points=[[0,0.5],[1,0.5]];portConstraint=eastwest;fontColor=#143642;" parent="iJNk47OYg-jyD1bxVvRo-31" vertex="1"><mxGeometry y="26" width="150" height="26" as="geometry"/></mxCell><mxCell id="30" value="user_id : int FK" style="text;strokeColor=none;fillColor=none;align=left;verticalAlign=top;spacingLeft=4;spacingRight=4;overflow=hidden;rotatable=0;points=[[0,0.5],[1,0.5]];portConstraint=eastwest;fontColor=#143642;" parent="iJNk47OYg-jyD1bxVvRo-31" vertex="1"><mxGeometry y="52" width="150" height="26" as="geometry"/></mxCell><mxCell id="iJNk47OYg-jyD1bxVvRo-32" value="date_created : timestamp&#10;" style="text;strokeColor=none;fillColor=none;align=left;verticalAlign=top;spacingLeft=4;spacingRight=4;overflow=hidden;rotatable=0;points=[[0,0.5],[1,0.5]];portConstraint=eastwest;fontColor=#143642;" parent="iJNk47OYg-jyD1bxVvRo-31" vertex="1"><mxGeometry y="78" width="150" height="26" as="geometry"/></mxCell><mxCell id="2" value="shopping_cart" style="swimlane;fontStyle=0;childLayout=stackLayout;horizontal=1;startSize=26;fillColor=none;horizontalStack=0;resizeParent=1;resizeParentMax=0;resizeLast=0;collapsible=1;marginBottom=0;strokeColor=#0F8B8D;fontColor=#143642;" parent="1" vertex="1"><mxGeometry x="930" y="-70" width="150" height="182" as="geometry"><mxRectangle x="110" y="240" width="60" height="26" as="alternateBounds"/></mxGeometry></mxCell><mxCell id="3" value="id : int PK" style="text;strokeColor=none;fillColor=none;align=left;verticalAlign=top;spacingLeft=4;spacingRight=4;overflow=hidden;rotatable=0;points=[[0,0.5],[1,0.5]];portConstraint=eastwest;fontColor=#143642;" parent="2" vertex="1"><mxGeometry y="26" width="150" height="26" as="geometry"/></mxCell><mxCell id="43" value="user_id : int FK" style="text;strokeColor=none;fillColor=none;align=left;verticalAlign=top;spacingLeft=4;spacingRight=4;overflow=hidden;rotatable=0;points=[[0,0.5],[1,0.5]];portConstraint=eastwest;fontColor=#143642;" parent="2" vertex="1"><mxGeometry y="52" width="150" height="26" as="geometry"/></mxCell><mxCell id="12" value="comment : text" style="text;strokeColor=none;fillColor=none;align=left;verticalAlign=top;spacingLeft=4;spacingRight=4;overflow=hidden;rotatable=0;points=[[0,0.5],[1,0.5]];portConstraint=eastwest;fontColor=#143642;" parent="2" vertex="1"><mxGeometry y="78" width="150" height="26" as="geometry"/></mxCell><mxCell id="13" value="date_upload : timestamp" style="text;strokeColor=none;fillColor=none;align=left;verticalAlign=top;spacingLeft=4;spacingRight=4;overflow=hidden;rotatable=0;points=[[0,0.5],[1,0.5]];portConstraint=eastwest;fontColor=#143642;" parent="2" vertex="1"><mxGeometry y="104" width="150" height="26" as="geometry"/></mxCell><mxCell id="15" value="time_to_do : timestamp" style="text;strokeColor=none;fillColor=none;align=left;verticalAlign=top;spacingLeft=4;spacingRight=4;overflow=hidden;rotatable=0;points=[[0,0.5],[1,0.5]];portConstraint=eastwest;fontColor=#143642;" parent="2" vertex="1"><mxGeometry y="130" width="150" height="26" as="geometry"/></mxCell><mxCell id="14" value="transaction_id : text" style="text;strokeColor=none;fillColor=none;align=left;verticalAlign=top;spacingLeft=4;spacingRight=4;overflow=hidden;rotatable=0;points=[[0,0.5],[1,0.5]];portConstraint=eastwest;fontColor=#143642;" parent="2" vertex="1"><mxGeometry y="156" width="150" height="26" as="geometry"/></mxCell><mxCell id="57" value="" style="edgeStyle=entityRelationEdgeStyle;fontSize=12;html=1;endArrow=ERoneToMany;strokeColor=#A8201A;fontColor=#143642;labelBackgroundColor=#DAD2D8;" parent="1" source="43" target="49" edge="1"><mxGeometry width="100" height="100" relative="1" as="geometry"><mxPoint x="880" y="258.99999999999955" as="sourcePoint"/><mxPoint x="950" y="238.99999999999955" as="targetPoint"/></mxGeometry></mxCell><mxCell id="DFCJe154SnKGi0cL0aBG-1" value="address" style="swimlane;fontStyle=0;childLayout=stackLayout;horizontal=1;startSize=26;fillColor=none;horizontalStack=0;resizeParent=1;resizeParentMax=0;resizeLast=0;collapsible=1;marginBottom=0;strokeColor=#0F8B8D;fontColor=#143642;" parent="1" vertex="1"><mxGeometry x="290" y="220" width="150" height="182" as="geometry"><mxRectangle x="344" y="22" width="60" height="26" as="alternateBounds"/></mxGeometry></mxCell><mxCell id="DFCJe154SnKGi0cL0aBG-2" value="id : int PK" style="text;strokeColor=none;fillColor=none;align=left;verticalAlign=top;spacingLeft=4;spacingRight=4;overflow=hidden;rotatable=0;points=[[0,0.5],[1,0.5]];portConstraint=eastwest;fontColor=#143642;" parent="DFCJe154SnKGi0cL0aBG-1" vertex="1"><mxGeometry y="26" width="150" height="26" as="geometry"/></mxCell><mxCell id="26" value="shop_id : int FK" style="text;strokeColor=none;fillColor=none;align=left;verticalAlign=top;spacingLeft=4;spacingRight=4;overflow=hidden;rotatable=0;points=[[0,0.5],[1,0.5]];portConstraint=eastwest;fontColor=#143642;" parent="DFCJe154SnKGi0cL0aBG-1" vertex="1"><mxGeometry y="52" width="150" height="26" as="geometry"/></mxCell><mxCell id="DFCJe154SnKGi0cL0aBG-3" value="address_text : text" style="text;strokeColor=none;fillColor=none;align=left;verticalAlign=top;spacingLeft=4;spacingRight=4;overflow=hidden;rotatable=0;points=[[0,0.5],[1,0.5]];portConstraint=eastwest;fontColor=#143642;" parent="DFCJe154SnKGi0cL0aBG-1" vertex="1"><mxGeometry y="78" width="150" height="26" as="geometry"/></mxCell><mxCell id="DFCJe154SnKGi0cL0aBG-5" value="x : double" style="text;strokeColor=none;fillColor=none;align=left;verticalAlign=top;spacingLeft=4;spacingRight=4;overflow=hidden;rotatable=0;points=[[0,0.5],[1,0.5]];portConstraint=eastwest;fontColor=#143642;" parent="DFCJe154SnKGi0cL0aBG-1" vertex="1"><mxGeometry y="104" width="150" height="26" as="geometry"/></mxCell><mxCell id="DFCJe154SnKGi0cL0aBG-4" value="y : double" style="text;strokeColor=none;fillColor=none;align=left;verticalAlign=top;spacingLeft=4;spacingRight=4;overflow=hidden;rotatable=0;points=[[0,0.5],[1,0.5]];portConstraint=eastwest;fontColor=#143642;" parent="DFCJe154SnKGi0cL0aBG-1" vertex="1"><mxGeometry y="130" width="150" height="26" as="geometry"/></mxCell><mxCell id="27" value="date_updated : timestamp" style="text;strokeColor=none;fillColor=none;align=left;verticalAlign=top;spacingLeft=4;spacingRight=4;overflow=hidden;rotatable=0;points=[[0,0.5],[1,0.5]];portConstraint=eastwest;fontColor=#143642;" parent="DFCJe154SnKGi0cL0aBG-1" vertex="1"><mxGeometry y="156" width="150" height="26" as="geometry"/></mxCell></root></mxGraphModel></diagram></mxfile>